{
  "accessors": [
    {
      "bufferView": 2,
      "componentType": 5126,
      "count": 14301,
      "max": [
        2.402595281600952,
        2.182758092880249,
        1.0395190715789795
      ],
      "min": [
        -2.2130839824676514,
        -2.907729387283325,
        -9.5367431640625e-07
      ],
      "type": "VEC3"
    },
    {
      "bufferView": 2,
      "byteOffset": 171612,
      "componentType": 5126,
      "count": 14301,
      "max": [
        1.0,
        1.0,
        1.0
      ],
      "min": [
        -1.0,
        -1.0,
        -1.0
      ],
      "type": "VEC3"
    },
    {
      "bufferView": 3,
      "componentType": 5126,
      "count": 14301,
      "max": [
        1.0,
        1.0,
        0.9999983310699463,
        1.0
      ],
      "min": [
        -1.0,
        -1.0,
        -0.9999961256980896,
        1.0
      ],
      "type": "VEC4"
    },
    {
      "bufferView": 1,
      "componentType": 5126,
      "count": 14301,
      "max": [
        0.9992613792419434,
        0.9994099736213684
      ],
      "min": [
        0.0005876964423805475,
        0.0005875647766515613
      ],
      "type": "VEC2"
    },
    {
      "bufferView": 1,
      "byteOffset": 114408,
      "componentType": 5126,
      "count": 14301,
      "max": [
        5.2795281410217285,
        3.62981915473938
      ],
      "min": [
        -2.02884840965271,
        -1.563058614730835
      ],
      "type": "VEC2"
    },
    {
      "bufferView": 1,
      "byteOffset": 228816,
      "componentType": 5126,
      "count": 14301,
      "max": [
        0.9992613792419434,
        0.9994099736213684
      ],
      "min": [
        0.0005876964423805475,
        0.0005875647766515613
      ],
      "type": "VEC2"
    },
    {
      "bufferView": 1,
      "byteOffset": 343224,
      "componentType": 5126,
      "count": 14301,
      "max": [
        0.9992613792419434,
        0.9994099736213684
      ],
      "min": [
        0.0005876964423805475,
        0.0005875647766515613
      ],
      "type": "VEC2"
    },
    {
      "bufferView": 0,
      "componentType": 5125,
      "count": 66540,
      "type": "SCALAR"
    }
  ],
  "asset": {
    "extras": {
      "author": "VR.Space (https://sketchfab.com/vrspace01)",
      "license": "CC-BY-4.0 (http://creativecommons.org/licenses/by/4.0/)",
      "source": "https://sketchfab.com/3d-models/large-corner-sectional-sofa-1680cc4638ba4902ada718b8b03f6a4b",
      "title": "Large Corner Sectional Sofa"
    },
    "generator": "Sketchfab-12.68.0",
    "version": "2.0"
  },
  "bufferViews": [
    {
      "buffer": 0,
      "byteLength": 266160,
      "name": "floatBufferViews",
      "target": 34963
    },
    {
      "buffer": 0,
      "byteLength": 457632,
      "byteOffset": 266160,
      "byteStride": 8,
      "name": "floatBufferViews",
      "target": 34962
    },
    {
      "buffer": 0,
      "byteLength": 343224,
      "byteOffset": 723792,
      "byteStride": 12,
      "name": "floatBufferViews",
      "target": 34962
    },
    {
      "buffer": 0,
      "byteLength": 228816,
      "byteOffset": 1067016,
      "byteStride": 16,
      "name": "floatBufferViews",
      "target": 34962
    }
  ],
  "buffers": [
    {
      "byteLength": 1295832,
      "uri": "scene.bin"
    }
  ],
  "images": [
    {
      "uri": "textures/Material.002_baseColor.png"
    },
    {
      "uri": "textures/Material.002_normal.png"
    }
  ],
  "materials": [
    {
      "doubleSided": true,
      "name": "Material.002",
      "normalTexture": {
        "index": 1
      },
      "pbrMetallicRoughness": {
        "baseColorTexture": {
          "index": 0
        },
        "metallicFactor": 0.0,
        "roughnessFactor": 0.8211145618000169
      }
    }
  ],
  "meshes": [
    {
      "name": "large sectional couch Low Poly_Material.002_0",
      "primitives": [
        {
          "attributes": {
            "NORMAL": 1,
            "POSITION": 0,
            "TANGENT": 2,
            "TEXCOORD_0": 3,
            "TEXCOORD_1": 4,
            "TEXCOORD_2": 5,
            "TEXCOORD_3": 6
          },
          "indices": 7,
          "material": 0,
          "mode": 4
        }
      ]
    }
  ],
  "nodes": [
    {
      "children": [
        1
      ],
      "matrix": [
        1.0,
        0.0,
        0.0,
        0.0,
        0.0,
        2.220446049250313e-16,
        -1.0,
        0.0,
        0.0,
        1.0,
        2.220446049250313e-16,
        0.0,
        0.0,
        0.0,
        0.0,
        1.0
      ],
      "name": "Sketchfab_model"
    },
    {
      "children": [
        2
      ],
      "matrix": [
        0.009999999776482582,
        0.0,
        0.0,
        0.0,
        0.0,
        0.0,
        0.009999999776482582,
        0.0,
        0.0,
        -0.009999999776482582,
        0.0,
        0.0,
        0.0,
        0.0,
        0.0,
        1.0
      ],
      "name": "L_couch02.fbx"
    },
    {
      "children": [
        3
      ],
      "name": "RootNode"
    },
    {
      "children": [
        4
      ],
      "matrix": [
        100.0,
        0.0,
        0.0,
        0.0,
        0.0,
        -1.629206793918314e-05,
        -99.99999999999868,
        0.0,
        0.0,
        99.99999999999868,
        -1.629206793918314e-05,
        0.0,
        0.0,
        0.0,
        0.0,
        1.0
      ],
      "name": "large sectional couch Low Poly"
    },
    {
      "mesh": 0,
      "name": "large sectional couch Low Poly_Material.002_0"
    }
  ],
  "samplers": [
    {
      "magFilter": 9729,
      "minFilter": 9987,
      "wrapS": 10497,
      "wrapT": 10497
    }
  ],
  "scene": 0,
  "scenes": [
    {
      "name": "Sketchfab_Scene",
      "nodes": [
        0
      ]
    }
  ],
  "textures": [
    {
      "sampler": 0,
      "source": 0
    },
    {
      "sampler": 0,
      "source": 1
    }
  ]
}
